<?xml version="1.0" encoding="UTF-8" standalone="no"?>
<!-- Created with Inkscape (http://www.inkscape.org/) -->

<svg
   version="1.1"
   id="svg2"
   width="6000"
   height="3500"
   viewBox="0 0 6000 3500"
   sodipodi:docname="40076.eps"
   xmlns:inkscape="http://www.inkscape.org/namespaces/inkscape"
   xmlns:sodipodi="http://sodipodi.sourceforge.net/DTD/sodipodi-0.dtd"
   xmlns="http://www.w3.org/2000/svg"
   xmlns:svg="http://www.w3.org/2000/svg">
  <defs
     id="defs6">
    <clipPath
       clipPathUnits="userSpaceOnUse"
       id="clipPath20">
      <path
         d="m 45000,15791.6 c -98.5,35.6 -198.1,72.3 -295.1,106.4 -173.7,60.9 -345,119.3 -514,175.4 -169,56 -335.6,109.5 -500,160.7 -164.3,51.3 -326.5,100.1 -486.4,146.6 -159.9,46.6 -317.7,90.8 -473.3,132.9 -155.7,42 -309.2,81.8 -460.7,119.5 -151.4,37.6 -300.9,73.1 -448.4,106.6 -147.4,33.4 -292.9,64.7 -436.4,94.1 -143.6,29.4 -285.3,56.8 -425.1,82.1 -139.8,25.5 -277.8,49 -414,70.6 -136.3,21.6 -270.7,41.4 -403.5,59.4 -132.8,18 -263.8,34.2 -393.3,48.7 -129.4,14.5 -257.2,27.2 -383.5,38.4 -126.2,11.1 -250.9,20.6 -374.1,28.5 -123.3,7.9 -245,14.3 -365.3,19.2 -120.3,4.9 -239.2,8.2 -356.7,10.2 -117.6,1.9 -233.8,2.4 -348.7,1.6 -114.9,-0.9 -228.6,-3.1 -341,-6.5 -112.5,-3.5 -223.7,-8.2 -333.8,-14.2 -110.1,-5.9 -219.1,-13.1 -327,-21.4 -107.9,-8.2 -214.7,-17.7 -320.5,-28.2 -105.8,-10.4 -210.7,-22 -314.6,-34.5 -103.9,-12.6 -206.9,-26.1 -309,-40.5 -102.1,-14.5 -203.4,-29.9 -303.9,-46 -100.4,-16.2 -200.1,-33.3 -299.1,-51.1 -99,-17.8 -197.3,-36.4 -294.9,-55.7 -97.6,-19.3 -194.5,-39.3 -290.9,-59.9 -96.5,-20.6 -192.2,-41.9 -287.5,-63.7 -190.7,-43.6 -379.2,-89.4 -566.4,-136.9 -187.1,-47.4 -372.7,-96.5 -557.5,-146.6 -184.7,-50.2 -368.5,-101.4 -552,-153.1 -183.5,-51.7 -366.6,-103.8 -550,-155.9 -183.3,-52.1 -366.9,-104 -551.2,-155.3 -184.3,-51.3 -369.4,-101.9 -555.9,-151.3 -186.4,-49.3 -374.1,-97.4 -563.8,-143.6 -94.8,-23.2 -190.1,-45.8 -286,-68 -95.8,-22.1 -192.2,-43.7 -289.2,-64.7 -97,-21 -194.6,-41.4 -292.9,-61.1 -98.3,-19.7 -197.2,-38.7 -297,-57 -99.7,-18.4 -200.2,-35.9 -301.5,-52.6 -101.2,-16.7 -203.4,-32.6 -306.4,-47.6 -103,-15 -206.9,-29.1 -311.8,-42.3 -104.8,-13.1 -210.7,-25.3 -317.6,-36.4 -106.8,-11.1 -214.7,-21.2 -323.7,-30.2 -109,-9 -219.1,-16.9 -330.4,-23.6 -111.3,-6.6 -223.7,-12.1 -337.4,-16.4 -113.7,-4.2 -228.6,-7.2 -344.9,-8.9 -116.2,-1.6 -233.8,-2 -352.7,-0.9 -118.9,1.1 -239.3,3.5 -361,7.5 -121.8,3.9 -245,9.4 -369.8,16.4 -124.7,6.9 -251,15.4 -378.9,25.6 -127.8,10.1 -257.3,21.9 -388.4,35.3 -131.1,13.4 -263.9,28.6 -398.4,45.5 -67.2,8.4 -134.6,15.7 -202.1,22 -67.5,6.3 -135.1,11.4 -202.9,15.6 -67.7,4.1 -135.5,7.1 -203.5,9.1 -67.9,1.9 -136,2.9 -204.1,2.8 -68.2,-0.1 -136.4,-1.3 -204.7,-3.5 -68.4,-2.2 -136.8,-5.3 -205.4,-9.5 -68.5,-4.2 -137.1,-9.4 -205.8,-15.6 -68.7,-6.2 -137.5,-13.3 -206.3,-21.5 -68.9,-8.1 -137.8,-17.2 -206.8,-27.3 -69,-10.1 -138.1,-21.1 -207.2,-33 -69.1,-12 -138.4,-24.9 -207.6,-38.7 -69.3,-13.8 -138.6,-28.5 -207.9,-44.1 -69.4,-15.7 -138.8,-32.2 -208.2,-49.6 -69.5,-17.4 -139,-35.8 -208.6,-54.9 -69.5,-19.2 -139.1,-39.2 -208.7,-60.1 -69.6,-20.9 -139.3,-42.7 -209,-65.2 -69.6,-22.7 -139.3,-46.1 -209.1,-70.3 -69.7,-24.2 -139.4,-49.3 -209.2,-75.2 -69.8,-25.8 -139.5,-52.5 -209.3,-79.9 -69.8,-27.5 -139.6,-55.7 -209.4,-84.8 -69.8,-28.9 -139.6,-58.7 -209.4,-89.3 -69.9,-30.5 -139.6,-61.8 -209.4,-93.8 -69.8,-32 -139.6,-64.8 -209.3,-98.2 -69.8,-33.5 -139.6,-67.7 -209.3,-102.6 -139.5,-69.7 -278.8,-142.3 -418.1,-217.6 -139.2,-75.3 -278.4,-153.2 -417.3,-233.7 -138.9,-80.5 -277.7,-163.5 -416.2,-248.9 -138.5,-85.4 -276.8,-173.3 -414.8,-263.4 -138,-90.1 -275.8,-182.5 -413.2,-277 -137.4,-94.5 -274.5,-191.2 -411.2,-289.9 -136.7,-98.6 -273,-199.3 -409,-301.8 -135.9,-102.6 -271.4,-207 -406.4,-313.2 -135,-106.1 -269.5,-214 -403.6,-323.5 -134,-109.5 -267.6,-220.6 -400.5,-333.2 -132.9,-112.5 -265.3,-226.6 -397.1,-342 -131.8,-115.3 -262.9,-232.1 -393.4,-350 -130.5,-117.9 -260.3,-237 -389.4,-357.2 -129.1,-120.2 -257.5,-241.4 -385.2,-363.6 -127.6,-122.23 -254.5,-245.36 -380.5,-369.3 -126.1,-123.91 -251.3,-248.64 -375.8,-374.03 -124.4,-125.39 -247.9,-251.48 -370.5,-378.08 -122.7,-126.6 -244.4,-253.71 -365.2,-381.25 -120.7,-127.54 -240.6,-255.47 -359.4,-383.67 -118.8,-128.21 -236.6,-256.65 -353.4,-385.24 -116.8,-128.59 -232.5,-257.34 -347.1,-386.05 -114.6,-128.71 -228.1,-257.46 -340.5,-386.02 -112.4,-128.59 -223.6,-257.07 -333.6,-385.23 -110,-128.21 -218.9,-256.1 -326.5,-383.64 -107.5,-127.5 -213.9,-254.61 -319,-381.17 -104.99,-126.56 -208.74,-252.58 -311.16,-377.97 -204.8,-250.7 -404.29,-498.75 -598.01,-743.04 C 8991.52,4507.15 8803.55,4266.6 8621.72,4030.9 8439.92,3795.2 8264.22,3564.34 8095.04,3339.34 7925.9,3114.37 7763.24,2895.27 7607.5,2683.16 7451.76,2471.02 7302.97,2265.86 7161.45,2068.75 7019.92,1871.64 6885.66,1682.58 6759.14,1502.58 6632.62,1322.62 6513.75,1151.76 6402.97,991.051 6292.19,830.391 6189.49,679.883 6095.23,540.621 6000.98,401.371 5915.16,273.359 5838.2,157.66 5793.09,89.8008 5773.83,59.1406 5734.88,0 H 45000 Z"
         id="path18" />
    </clipPath>
    <radialGradient
       fx="1195.8101"
       fy="446.01801"
       cx="1195.8101"
       cy="446.01801"
       r="2617.6699"
       gradientUnits="userSpaceOnUse"
       gradientTransform="matrix(1.61644,-4.98312,-15.6039,-5.06208,23434.7,25672.3)"
       spreadMethod="pad"
       id="radialGradient26">
      <stop
         style="stop-opacity:1;stop-color:#333333"
         offset="0"
         id="stop22" />
      <stop
         style="stop-opacity:1;stop-color:#1a1a1a"
         offset="1"
         id="stop24" />
    </radialGradient>
    <clipPath
       clipPathUnits="userSpaceOnUse"
       id="clipPath36">
      <path
         d="m 36171.6,23032.2 c -51.7,-0.3 -103.2,-1.3 -154.8,-3 -51.6,-1.7 -103.1,-4.2 -154.6,-7.4 -51.5,-3.2 -103.1,-7.1 -154.6,-11.7 -51.5,-4.7 -103.1,-10 -154.6,-16.1 -51.6,-6 -103.2,-12.8 -154.8,-20.2 -51.6,-7.4 -103.2,-15.6 -155,-24.4 -51.7,-8.7 -103.5,-18.2 -155.4,-28.3 -103.7,-20.3 -207.7,-43.2 -312.2,-68.6 -104.5,-25.5 -209.4,-53.4 -314.9,-83.8 -105.5,-30.4 -211.6,-63.2 -318.4,-98.4 -106.7,-35.1 -214.2,-72.6 -322.6,-112.3 -108.4,-39.7 -217.6,-81.6 -327.8,-125.6 -110.3,-44 -221.5,-90.2 -333.8,-138.3 -112.4,-48.2 -225.8,-98.3 -340.6,-150.3 -114.7,-52.1 -230.7,-106 -348.1,-161.8 -117.4,-55.7 -236.2,-113.3 -356.6,-172.5 -120.3,-59.2 -242.2,-120.1 -365.8,-182.6 -123.6,-62.5 -248.9,-126.6 -375.9,-192.2 -254.2,-131.1 -515.6,-268.2 -785.4,-410.3 -269.8,-142.1 -547.9,-289.3 -835.5,-440.7 -287.6,-151.4 -584.7,-307 -892.3,-466 -153.8,-79.5 -310.3,-159.9 -469.5,-241 -159.3,-81.1 -321.2,-162.9 -486.2,-245.4 -82.4,-41.2 -164.8,-81 -247.1,-119.3 -82.3,-38.4 -164.6,-75.2 -246.9,-110.7 -82.2,-35.6 -164.5,-69.7 -246.9,-102.4 -82.4,-32.7 -164.8,-64 -247.3,-94 -82.6,-30 -165.3,-58.6 -248.1,-85.9 -82.9,-27.3 -166,-53.2 -249.3,-77.9 -83.3,-24.6 -166.9,-48 -250.7,-70 -83.9,-22.1 -168,-42.9 -252.6,-62.4 -84.5,-19.6 -169.4,-37.8 -254.7,-54.9 -85.4,-17 -171.1,-32.8 -257.3,-47.4 -86.3,-14.6 -173,-28 -260.2,-40.2 -87.3,-12.3 -175,-23.3 -263.4,-33.2 -88.4,-9.9 -177.4,-18.6 -267.1,-26.2 -89.6,-7.6 -179.9,-14.1 -270.9,-19.5 -91.1,-5.4 -182.8,-9.6 -275.3,-12.8 -92.5,-3.2 -185.8,-5.3 -279.9,-6.4 -94.1,-1 -189.1,-1 -285,0 -95.8,1.1 -192.5,3.1 -290.2,6.2 -97.7,3 -196.4,7.1 -296.1,12.1 -99.6,5 -200.3,11.1 -302,18 -101.7,7 -204.6,14.9 -308.5,23.8 -103.9,8.8 -209,18.6 -315.2,29.3 -106.3,10.7 -213.7,22.3 -322.4,34.7 -108.7,12.5 -218.6,25.8 -329.8,40 -111.3,14.1 -223.8,29.2 -337.7,45.1 -113.9,15.8 -229.2,32.5 -345.8,50 -233.4,35 -472.5,73.2 -717.7,114.3 -245.2,41.2 -496.6,85.4 -754.6,132.4 -258,47 -522.6,96.8 -794.3,149.2 -271.7,52.4 -550.5,107.3 -837,164.7 -286.3,57.4 -580.3,117.1 -882.3,179.1 -604,123.9 -1240.1,256.7 -1912.1,396.6 -672.1,139.8 -1380,286.8 -2127.6,439.4 -373.9,76.3 -757.6,154 -1151.7,232.9 -394.1,78.8 -798.6,158.9 -1213.9,239.9 -415.4,81 -841.62,163 -1279.15,245.8 -437.54,82.8 -886.41,166.3 -1347.07,250.5 -460.67,84.1 -933.13,168.8 -1417.86,254 -484.72,85 -981.72,170.5 -1491.48,256.2 -509.73,85.6 -1032.19,171.5 -1567.85,257.3 -535.71,85.8 -1084.57,171.5 -1647.11,257.1 C 1018.79,22571.4 512.461,22645.8 0,22720 V 0 h 5734.88 c 38.95,59.1406 58.21,89.8008 103.32,157.66 76.96,115.699 162.78,243.711 257.03,382.961 94.26,139.262 196.96,289.77 307.74,450.43 110.78,160.709 229.65,331.569 356.17,511.529 126.52,180 260.78,369.06 402.31,566.17 141.52,197.11 290.31,402.27 446.05,614.41 155.74,212.11 318.4,431.21 487.54,656.18 169.18,225 344.88,455.86 526.68,691.56 181.83,235.7 369.8,476.25 563.51,720.51 193.72,244.29 393.21,492.34 598.01,743.04 102.42,125.39 206.17,251.41 311.16,377.97 105.1,126.56 211.5,253.67 319,381.17 107.6,127.54 216.5,255.43 326.5,383.64 110,128.16 221.2,256.64 333.6,385.23 112.4,128.56 225.9,257.31 340.5,386.02 114.6,128.71 230.3,257.46 347.1,386.05 116.8,128.59 234.6,257.03 353.4,385.24 118.8,128.2 238.7,256.13 359.4,383.67 120.8,127.54 242.5,254.65 365.2,381.25 122.6,126.6 246.1,252.69 370.5,378.08 124.5,125.39 249.7,250.12 375.8,374.03 126,123.94 252.9,247.07 380.5,369.3 127.7,122.2 256.1,243.4 385.2,363.6 129.1,120.2 258.9,239.3 389.4,357.2 130.5,117.9 261.6,234.7 393.4,350 131.8,115.4 264.2,229.5 397.1,342 132.9,112.6 266.5,223.7 400.5,333.2 134.1,109.5 268.6,217.4 403.6,323.5 135,106.2 270.5,210.6 406.4,313.2 136,102.5 272.3,203.2 409,301.8 136.7,98.7 273.8,195.4 411.2,289.9 137.4,94.5 275.2,186.9 413.2,277 138,90.1 276.3,178 414.8,263.4 138.5,85.4 277.3,168.4 416.2,248.9 138.9,80.5 278.1,158.4 417.3,233.7 139.3,75.3 278.6,147.9 418.1,217.6 69.7,34.9 139.5,69.1 209.3,102.6 69.7,33.4 139.5,66.2 209.3,98.2 69.8,32 139.5,63.3 209.4,93.8 69.8,30.6 139.6,60.4 209.4,89.3 69.8,29.1 139.6,57.3 209.4,84.8 69.8,27.4 139.5,54.1 209.3,79.9 69.8,25.9 139.5,51 209.2,75.2 69.8,24.2 139.5,47.6 209.1,70.3 69.7,22.5 139.4,44.3 209,65.2 69.6,20.9 139.2,40.9 208.7,60.1 69.6,19.1 139.1,37.5 208.6,54.9 69.4,17.4 138.8,33.9 208.2,49.6 69.3,15.6 138.6,30.3 207.9,44.1 69.2,13.8 138.5,26.7 207.6,38.7 69.1,11.9 138.2,22.9 207.2,33 69,10.1 137.9,19.2 206.8,27.3 68.8,8.2 137.6,15.3 206.3,21.5 68.7,6.2 137.3,11.4 205.8,15.6 68.6,4.2 137,7.3 205.4,9.5 68.3,2.2 136.5,3.4 204.7,3.5 68.1,0.1 136.2,-0.9 204.1,-2.8 68,-2 135.8,-5 203.5,-9.1 67.8,-4.2 135.4,-9.3 202.9,-15.6 67.5,-6.3 134.9,-13.6 202.1,-22 134.5,-16.9 267.3,-32.1 398.4,-45.5 131.1,-13.4 260.6,-25.2 388.4,-35.3 127.9,-10.2 254.2,-18.7 378.9,-25.6 124.8,-7 248,-12.5 369.8,-16.4 121.7,-4 242.1,-6.4 361,-7.5 118.9,-1.1 236.5,-0.7 352.7,0.9 116.3,1.7 231.2,4.7 344.9,8.9 113.7,4.3 226.1,9.8 337.4,16.4 111.3,6.7 221.4,14.6 330.4,23.6 109,9 216.9,19.1 323.7,30.2 106.9,11.1 212.8,23.3 317.6,36.4 104.9,13.2 208.8,27.3 311.8,42.3 103,15 205.2,30.9 306.4,47.6 101.3,16.7 201.8,34.2 301.5,52.6 99.8,18.3 198.7,37.3 297,57 98.3,19.7 195.9,40.1 292.9,61.1 97,21 193.4,42.6 289.2,64.7 95.9,22.2 191.2,44.8 286,68 189.7,46.2 377.4,94.3 563.8,143.6 186.5,49.4 371.6,100 555.9,151.3 184.3,51.3 367.9,103.2 551.2,155.3 183.4,52.1 366.5,104.2 550,155.9 183.5,51.7 367.3,102.9 552,153.1 184.8,50.1 370.4,99.2 557.5,146.6 187.2,47.5 375.7,93.3 566.4,136.9 95.3,21.8 191,43.1 287.5,63.7 96.4,20.6 193.3,40.6 290.9,59.9 97.6,19.3 195.9,37.9 294.9,55.7 99,17.8 198.7,34.9 299.1,51.1 100.5,16.1 201.8,31.5 303.9,46 102.1,14.4 205.1,27.9 309,40.5 103.9,12.5 208.8,24.1 314.6,34.5 105.8,10.5 212.6,20 320.5,28.2 107.9,8.3 216.9,15.5 327,21.4 110.1,6 221.3,10.7 333.8,14.2 112.4,3.4 226.1,5.6 341,6.5 114.9,0.8 231.1,0.3 348.7,-1.6 117.5,-2 236.4,-5.3 356.7,-10.2 120.3,-4.9 242,-11.3 365.3,-19.2 123.2,-7.9 247.9,-17.4 374.1,-28.5 126.3,-11.2 254.1,-23.9 383.5,-38.4 129.5,-14.5 260.5,-30.7 393.3,-48.7 132.8,-18 267.2,-37.8 403.5,-59.4 136.2,-21.6 274.2,-45.1 414,-70.6 139.8,-25.3 281.5,-52.7 425.1,-82.1 143.5,-29.4 289,-60.7 436.4,-94.1 147.5,-33.5 297,-69 448.4,-106.6 151.5,-37.7 305,-77.5 460.7,-119.5 155.6,-42.1 313.4,-86.3 473.3,-132.9 159.9,-46.5 322.1,-95.3 486.4,-146.6 164.4,-51.2 331,-104.7 500,-160.7 169,-56.1 340.3,-114.5 514,-175.4 97,-34.1 196.6,-70.8 295.1,-106.4 v 4424.8 c -15.7,1.9 -28.6,2.8 -44.5,4.8 -122.2,14.8 -252.9,32.6 -391.6,54 -69.3,10.7 -140.7,22.2 -213.9,34.8 -73.3,12.5 -148.5,26 -225.6,40.5 -77,14.5 -155.9,30.1 -236.6,46.8 -80.7,16.7 -163.2,34.5 -247.4,53.4 -84.3,19 -170.2,39.1 -257.8,60.5 -87.6,21.4 -176.8,44.1 -267.7,68.1 -90.8,23.9 -183.2,49.2 -277.1,75.9 -94,26.7 -189.4,54.8 -286.3,84.4 -96.9,29.5 -195.2,60.6 -294.9,93.2 -99.8,32.6 -200.9,66.6 -303.2,102.4 -102.4,35.7 -206.2,73.1 -311.1,112.1 -105,39.1 -211.2,79.8 -318.5,122.3 -107.4,42.5 -215.9,86.8 -325.6,132.9 -109.6,46 -220.4,93.9 -332.1,143.8 -111.8,49.8 -224.7,101.6 -338.4,155.3 -113.8,53.7 -228.6,109.4 -344.2,167.1 -115.7,57.7 -232.2,117.6 -349.6,179.5 -117.3,61.9 -235.5,125.9 -354.5,192.2 -59.5,33.1 -118.6,65.2 -177.4,96.4 -58.7,31.1 -117.1,61.2 -175.2,90.4 -58.1,29.1 -115.8,57.3 -173.2,84.5 -57.4,27.2 -114.5,53.5 -171.3,78.8 -56.8,25.3 -113.3,49.7 -169.5,73.1 -56.2,23.4 -112.2,45.9 -167.8,67.4 -55.7,21.6 -111.1,42.2 -166.3,61.9 -55.1,19.8 -110,38.5 -164.7,56.5 -54.6,17.9 -109.1,34.9 -163.3,51 -54.2,16.2 -108.2,31.4 -162,45.8 -53.8,14.4 -107.4,27.9 -160.9,40.5 -53.4,12.6 -106.6,24.4 -159.7,35.4 -53.1,10.9 -106,21 -158.8,30.3 -52.7,9.2 -105.4,17.7 -157.9,25.3 -52.5,7.6 -104.8,14.4 -157.1,20.4 -52.2,6 -104.4,11.2 -156.4,15.6 -52.1,4.4 -104,8 -155.9,10.8 -51.9,2.8 -103.7,4.8 -155.4,6.1 -51.7,1.3 -103.4,1.8 -155,1.6 z"
         id="path34" />
    </clipPath>
    <radialGradient
       fx="-1168"
       fy="-1443.3101"
       cx="-1168"
       cy="-1443.3101"
       r="3000"
       gradientUnits="userSpaceOnUse"
       gradientTransform="matrix(0.00162141,-1.44932,-12.561,-0.0141118,4021.12,20513.7)"
       spreadMethod="pad"
       id="radialGradient42">
      <stop
         style="stop-opacity:1;stop-color:#333333"
         offset="0"
         id="stop38" />
      <stop
         style="stop-opacity:1;stop-color:#1a1a1a"
         offset="1"
         id="stop40" />
    </radialGradient>
    <clipPath
       clipPathUnits="userSpaceOnUse"
       id="clipPath52">
      <path
         d="m 0,26250 v -3530 c 512.461,-74.2 1018.79,-148.6 1510.08,-223.3 562.54,-85.6 1111.4,-171.3 1647.11,-257.1 535.66,-85.8 1058.12,-171.7 1567.85,-257.3 509.76,-85.7 1006.76,-171.2 1491.48,-256.2 484.73,-85.2 957.19,-169.9 1417.86,-254 460.66,-84.2 909.53,-167.7 1347.07,-250.5 437.53,-82.8 863.75,-164.8 1279.15,-245.9 415.3,-81 819.8,-161 1213.9,-239.9 394.1,-78.9 777.8,-156.5 1151.7,-232.8 747.6,-152.6 1455.5,-299.6 2127.6,-439.5 672,-139.9 1308.1,-272.6 1912.1,-396.5 302,-62 596,-121.8 882.3,-179.1 286.5,-57.4 565.3,-112.4 837,-164.8 271.7,-52.4 536.3,-102.2 794.3,-149.2 258,-47 509.4,-91.1 754.6,-132.3 245.2,-41.2 484.3,-79.4 717.7,-114.3 116.6,-17.5 231.9,-34.2 345.8,-50.1 113.9,-15.8 226.4,-30.9 337.7,-45 111.2,-14.2 221.1,-27.6 329.8,-40 108.7,-12.5 216.1,-24.1 322.4,-34.7 106.2,-10.7 211.3,-20.5 315.2,-29.3 103.9,-8.9 206.8,-16.8 308.5,-23.8 101.7,-6.9 202.4,-13 302,-18 99.7,-5 198.4,-9.1 296.1,-12.2 97.7,-3 194.4,-5.1 290.2,-6.1 95.9,-1 190.9,-1 285,0 94.1,1.1 187.4,3.2 279.9,6.4 92.5,3.2 184.2,7.4 275.3,12.8 91,5.4 181.3,11.8 270.9,19.5 89.7,7.5 178.7,16.3 267.1,26.2 88.4,9.9 176.1,20.9 263.4,33.1 87.2,12.3 173.9,25.7 260.2,40.3 86.2,14.6 171.9,30.4 257.3,47.4 85.3,17.1 170.2,35.3 254.7,54.9 84.6,19.5 168.7,40.3 252.6,62.3 83.8,22.1 167.4,45.4 250.7,70.1 83.3,24.6 166.4,50.6 249.3,77.9 82.8,27.3 165.5,55.9 248.1,85.9 82.5,29.9 164.9,61.3 247.3,94 82.4,32.7 164.7,66.8 246.9,102.3 82.3,35.5 164.6,72.4 246.9,110.7 82.3,38.4 164.7,78.2 247.1,119.4 165,82.5 326.9,164.3 486.2,245.4 159.2,81.1 315.7,161.4 469.5,241 307.6,158.9 604.7,314.6 892.3,466 287.6,151.4 565.7,298.6 835.5,440.7 269.8,142.1 531.2,279.2 785.4,410.3 127,65.5 252.3,129.6 375.9,192.1 123.6,62.5 245.5,123.4 365.8,182.7 120.4,59.2 239.2,116.8 356.6,172.5 117.4,55.7 233.4,109.7 348.1,161.7 114.8,52.1 228.2,102.2 340.6,150.4 112.3,48.1 223.5,94.2 333.8,138.2 110.2,44.1 219.4,86 327.8,125.7 108.4,39.7 215.9,77.1 322.6,112.3 106.8,35.1 212.9,67.9 318.4,98.3 105.5,30.4 210.4,58.4 314.9,83.8 104.5,25.5 208.5,48.3 312.2,68.6 51.9,10.1 103.7,19.6 155.4,28.4 51.8,8.8 103.4,16.9 155,24.4 51.6,7.4 103.2,14.1 154.8,20.2 51.5,6 103.1,11.4 154.6,16 51.5,4.7 103.1,8.6 154.6,11.8 51.5,3.2 103,5.7 154.6,7.4 51.6,1.7 103.1,2.7 154.8,3 51.6,0.2 103.3,-0.3 155,-1.6 51.7,-1.3 103.5,-3.3 155.4,-6.2 51.9,-2.8 103.8,-6.4 155.9,-10.8 52,-4.3 104.2,-9.5 156.4,-15.5 52.3,-6 104.6,-12.8 157.1,-20.4 52.5,-7.7 105.2,-16.1 157.9,-25.4 52.8,-9.2 105.7,-19.3 158.8,-30.2 53.1,-11 106.3,-22.8 159.7,-35.4 53.5,-12.7 107.1,-26.1 160.9,-40.5 53.8,-14.4 107.8,-29.7 162,-45.8 54.2,-16.1 108.7,-33.1 163.3,-51.1 54.7,-17.9 109.6,-36.7 164.7,-56.4 55.2,-19.7 110.6,-40.4 166.3,-61.9 55.6,-21.6 111.6,-44.1 167.8,-67.4 56.2,-23.5 112.7,-47.8 169.5,-73.1 56.8,-25.3 113.9,-51.6 171.3,-78.8 57.4,-27.2 115.1,-55.4 173.2,-84.5 58.1,-29.2 116.5,-59.3 175.2,-90.5 58.8,-31.1 117.9,-63.2 177.4,-96.3 119,-66.3 237.2,-130.4 354.5,-192.3 117.4,-61.9 233.9,-121.7 349.6,-179.4 115.6,-57.8 230.4,-113.5 344.2,-167.2 113.7,-53.7 226.6,-105.4 338.4,-155.2 111.7,-49.9 222.5,-97.8 332.1,-143.9 109.7,-46.1 218.2,-90.3 325.6,-132.8 107.3,-42.5 213.5,-83.3 318.5,-122.3 104.9,-39.1 208.6,-76.4 311.1,-112.1 102.3,-35.8 203.4,-69.9 303.2,-102.5 99.7,-32.5 198,-63.6 294.9,-93.2 96.9,-29.5 192.3,-57.6 286.3,-84.3 93.9,-26.7 186.3,-52 277.1,-76 90.9,-24 180.1,-46.6 267.7,-68 87.6,-21.4 173.5,-41.5 257.8,-60.5 84.2,-19 166.7,-36.8 247.4,-53.4 80.7,-16.7 159.6,-32.3 236.6,-46.8 77.1,-14.6 152.3,-28 225.6,-40.6 73.2,-12.5 144.6,-24.1 213.9,-34.7 138.7,-21.4 269.4,-39.2 391.6,-54.1 15.9,-1.9 28.8,-2.9 44.5,-4.7 V 26250 Z"
         id="path50" />
    </clipPath>
    <radialGradient
       fx="2912.79"
       fy="-2528.72"
       cx="2912.79"
       cy="-2528.72"
       r="3000"
       gradientUnits="userSpaceOnUse"
       gradientTransform="matrix(0.0263647,-2.32505,-6.49617,-0.0736617,5342.12,32879.4)"
       spreadMethod="pad"
       id="radialGradient58">
      <stop
         style="stop-opacity:1;stop-color:#333333"
         offset="0"
         id="stop54" />
      <stop
         style="stop-opacity:1;stop-color:#1a1a1a"
         offset="1"
         id="stop56" />
    </radialGradient>
  </defs>
  <sodipodi:namedview
     id="namedview4"
     pagecolor="#ffffff"
     bordercolor="#000000"
     borderopacity="0.25"
     inkscape:showpageshadow="2"
     inkscape:pageopacity="0.0"
     inkscape:pagecheckerboard="0"
     inkscape:deskcolor="#d1d1d1" />
  <g
     id="g8"
     inkscape:groupmode="layer"
     inkscape:label="ink_ext_XXXXXX"
     transform="matrix(1.3333333,0,0,-1.3333333,0,3500)">
    <g
       id="g10"
       transform="scale(0.1)">
      <path
         d="M 0,0 H 45000 V 26250 H 0 Z"
         style="fill:#333333;fill-opacity:1;fill-rule:nonzero;stroke:none"
         id="path12" />
      <g
         id="g14">
        <g
           id="g16"
           clip-path="url(#clipPath20)">
          <path
             d="m 45000,15791.6 c -98.5,35.6 -198.1,72.3 -295.1,106.4 -173.7,60.9 -345,119.3 -514,175.4 -169,56 -335.6,109.5 -500,160.7 -164.3,51.3 -326.5,100.1 -486.4,146.6 -159.9,46.6 -317.7,90.8 -473.3,132.9 -155.7,42 -309.2,81.8 -460.7,119.5 -151.4,37.6 -300.9,73.1 -448.4,106.6 -147.4,33.4 -292.9,64.7 -436.4,94.1 -143.6,29.4 -285.3,56.8 -425.1,82.1 -139.8,25.5 -277.8,49 -414,70.6 -136.3,21.6 -270.7,41.4 -403.5,59.4 -132.8,18 -263.8,34.2 -393.3,48.7 -129.4,14.5 -257.2,27.2 -383.5,38.4 -126.2,11.1 -250.9,20.6 -374.1,28.5 -123.3,7.9 -245,14.3 -365.3,19.2 -120.3,4.9 -239.2,8.2 -356.7,10.2 -117.6,1.9 -233.8,2.4 -348.7,1.6 -114.9,-0.9 -228.6,-3.1 -341,-6.5 -112.5,-3.5 -223.7,-8.2 -333.8,-14.2 -110.1,-5.9 -219.1,-13.1 -327,-21.4 -107.9,-8.2 -214.7,-17.7 -320.5,-28.2 -105.8,-10.4 -210.7,-22 -314.6,-34.5 -103.9,-12.6 -206.9,-26.1 -309,-40.5 -102.1,-14.5 -203.4,-29.9 -303.9,-46 -100.4,-16.2 -200.1,-33.3 -299.1,-51.1 -99,-17.8 -197.3,-36.4 -294.9,-55.7 -97.6,-19.3 -194.5,-39.3 -290.9,-59.9 -96.5,-20.6 -192.2,-41.9 -287.5,-63.7 -190.7,-43.6 -379.2,-89.4 -566.4,-136.9 -187.1,-47.4 -372.7,-96.5 -557.5,-146.6 -184.7,-50.2 -368.5,-101.4 -552,-153.1 -183.5,-51.7 -366.6,-103.8 -550,-155.9 -183.3,-52.1 -366.9,-104 -551.2,-155.3 -184.3,-51.3 -369.4,-101.9 -555.9,-151.3 -186.4,-49.3 -374.1,-97.4 -563.8,-143.6 -94.8,-23.2 -190.1,-45.8 -286,-68 -95.8,-22.1 -192.2,-43.7 -289.2,-64.7 -97,-21 -194.6,-41.4 -292.9,-61.1 -98.3,-19.7 -197.2,-38.7 -297,-57 -99.7,-18.4 -200.2,-35.9 -301.5,-52.6 -101.2,-16.7 -203.4,-32.6 -306.4,-47.6 -103,-15 -206.9,-29.1 -311.8,-42.3 -104.8,-13.1 -210.7,-25.3 -317.6,-36.4 -106.8,-11.1 -214.7,-21.2 -323.7,-30.2 -109,-9 -219.1,-16.9 -330.4,-23.6 -111.3,-6.6 -223.7,-12.1 -337.4,-16.4 -113.7,-4.2 -228.6,-7.2 -344.9,-8.9 -116.2,-1.6 -233.8,-2 -352.7,-0.9 -118.9,1.1 -239.3,3.5 -361,7.5 -121.8,3.9 -245,9.4 -369.8,16.4 -124.7,6.9 -251,15.4 -378.9,25.6 -127.8,10.1 -257.3,21.9 -388.4,35.3 -131.1,13.4 -263.9,28.6 -398.4,45.5 -67.2,8.4 -134.6,15.7 -202.1,22 -67.5,6.3 -135.1,11.4 -202.9,15.6 -67.7,4.1 -135.5,7.1 -203.5,9.1 -67.9,1.9 -136,2.9 -204.1,2.8 -68.2,-0.1 -136.4,-1.3 -204.7,-3.5 -68.4,-2.2 -136.8,-5.3 -205.4,-9.5 -68.5,-4.2 -137.1,-9.4 -205.8,-15.6 -68.7,-6.2 -137.5,-13.3 -206.3,-21.5 -68.9,-8.1 -137.8,-17.2 -206.8,-27.3 -69,-10.1 -138.1,-21.1 -207.2,-33 -69.1,-12 -138.4,-24.9 -207.6,-38.7 -69.3,-13.8 -138.6,-28.5 -207.9,-44.1 -69.4,-15.7 -138.8,-32.2 -208.2,-49.6 -69.5,-17.4 -139,-35.8 -208.6,-54.9 -69.5,-19.2 -139.1,-39.2 -208.7,-60.1 -69.6,-20.9 -139.3,-42.7 -209,-65.2 -69.6,-22.7 -139.3,-46.1 -209.1,-70.3 -69.7,-24.2 -139.4,-49.3 -209.2,-75.2 -69.8,-25.8 -139.5,-52.5 -209.3,-79.9 -69.8,-27.5 -139.6,-55.7 -209.4,-84.8 -69.8,-28.9 -139.6,-58.7 -209.4,-89.3 -69.9,-30.5 -139.6,-61.8 -209.4,-93.8 -69.8,-32 -139.6,-64.8 -209.3,-98.2 -69.8,-33.5 -139.6,-67.7 -209.3,-102.6 -139.5,-69.7 -278.8,-142.3 -418.1,-217.6 -139.2,-75.3 -278.4,-153.2 -417.3,-233.7 -138.9,-80.5 -277.7,-163.5 -416.2,-248.9 -138.5,-85.4 -276.8,-173.3 -414.8,-263.4 -138,-90.1 -275.8,-182.5 -413.2,-277 -137.4,-94.5 -274.5,-191.2 -411.2,-289.9 -136.7,-98.6 -273,-199.3 -409,-301.8 -135.9,-102.6 -271.4,-207 -406.4,-313.2 -135,-106.1 -269.5,-214 -403.6,-323.5 -134,-109.5 -267.6,-220.6 -400.5,-333.2 -132.9,-112.5 -265.3,-226.6 -397.1,-342 -131.8,-115.3 -262.9,-232.1 -393.4,-350 -130.5,-117.9 -260.3,-237 -389.4,-357.2 -129.1,-120.2 -257.5,-241.4 -385.2,-363.6 -127.6,-122.23 -254.5,-245.36 -380.5,-369.3 -126.1,-123.91 -251.3,-248.64 -375.8,-374.03 -124.4,-125.39 -247.9,-251.48 -370.5,-378.08 -122.7,-126.6 -244.4,-253.71 -365.2,-381.25 -120.7,-127.54 -240.6,-255.47 -359.4,-383.67 -118.8,-128.21 -236.6,-256.65 -353.4,-385.24 -116.8,-128.59 -232.5,-257.34 -347.1,-386.05 -114.6,-128.71 -228.1,-257.46 -340.5,-386.02 -112.4,-128.59 -223.6,-257.07 -333.6,-385.23 -110,-128.21 -218.9,-256.1 -326.5,-383.64 -107.5,-127.5 -213.9,-254.61 -319,-381.17 -104.99,-126.56 -208.74,-252.58 -311.16,-377.97 -204.8,-250.7 -404.29,-498.75 -598.01,-743.04 C 8991.52,4507.15 8803.55,4266.6 8621.72,4030.9 8439.92,3795.2 8264.22,3564.34 8095.04,3339.34 7925.9,3114.37 7763.24,2895.27 7607.5,2683.16 7451.76,2471.02 7302.97,2265.86 7161.45,2068.75 7019.92,1871.64 6885.66,1682.58 6759.14,1502.58 6632.62,1322.62 6513.75,1151.76 6402.97,991.051 6292.19,830.391 6189.49,679.883 6095.23,540.621 6000.98,401.371 5915.16,273.359 5838.2,157.66 5793.09,89.8008 5773.83,59.1406 5734.88,0 H 45000 Z"
             style="fill:url(#radialGradient26);fill-opacity:1;fill-rule:nonzero;stroke:none"
             id="path28" />
        </g>
      </g>
      <g
         id="g30">
        <g
           id="g32"
           clip-path="url(#clipPath36)">
          <path
             d="m 36171.6,23032.2 c -51.7,-0.3 -103.2,-1.3 -154.8,-3 -51.6,-1.7 -103.1,-4.2 -154.6,-7.4 -51.5,-3.2 -103.1,-7.1 -154.6,-11.7 -51.5,-4.7 -103.1,-10 -154.6,-16.1 -51.6,-6 -103.2,-12.8 -154.8,-20.2 -51.6,-7.4 -103.2,-15.6 -155,-24.4 -51.7,-8.7 -103.5,-18.2 -155.4,-28.3 -103.7,-20.3 -207.7,-43.2 -312.2,-68.6 -104.5,-25.5 -209.4,-53.4 -314.9,-83.8 -105.5,-30.4 -211.6,-63.2 -318.4,-98.4 -106.7,-35.1 -214.2,-72.6 -322.6,-112.3 -108.4,-39.7 -217.6,-81.6 -327.8,-125.6 -110.3,-44 -221.5,-90.2 -333.8,-138.3 -112.4,-48.2 -225.8,-98.3 -340.6,-150.3 -114.7,-52.1 -230.7,-106 -348.1,-161.8 -117.4,-55.7 -236.2,-113.3 -356.6,-172.5 -120.3,-59.2 -242.2,-120.1 -365.8,-182.6 -123.6,-62.5 -248.9,-126.6 -375.9,-192.2 -254.2,-131.1 -515.6,-268.2 -785.4,-410.3 -269.8,-142.1 -547.9,-289.3 -835.5,-440.7 -287.6,-151.4 -584.7,-307 -892.3,-466 -153.8,-79.5 -310.3,-159.9 -469.5,-241 -159.3,-81.1 -321.2,-162.9 -486.2,-245.4 -82.4,-41.2 -164.8,-81 -247.1,-119.3 -82.3,-38.4 -164.6,-75.2 -246.9,-110.7 -82.2,-35.6 -164.5,-69.7 -246.9,-102.4 -82.4,-32.7 -164.8,-64 -247.3,-94 -82.6,-30 -165.3,-58.6 -248.1,-85.9 -82.9,-27.3 -166,-53.2 -249.3,-77.9 -83.3,-24.6 -166.9,-48 -250.7,-70 -83.9,-22.1 -168,-42.9 -252.6,-62.4 -84.5,-19.6 -169.4,-37.8 -254.7,-54.9 -85.4,-17 -171.1,-32.8 -257.3,-47.4 -86.3,-14.6 -173,-28 -260.2,-40.2 -87.3,-12.3 -175,-23.3 -263.4,-33.2 -88.4,-9.9 -177.4,-18.6 -267.1,-26.2 -89.6,-7.6 -179.9,-14.1 -270.9,-19.5 -91.1,-5.4 -182.8,-9.6 -275.3,-12.8 -92.5,-3.2 -185.8,-5.3 -279.9,-6.4 -94.1,-1 -189.1,-1 -285,0 -95.8,1.1 -192.5,3.1 -290.2,6.2 -97.7,3 -196.4,7.1 -296.1,12.1 -99.6,5 -200.3,11.1 -302,18 -101.7,7 -204.6,14.9 -308.5,23.8 -103.9,8.8 -209,18.6 -315.2,29.3 -106.3,10.7 -213.7,22.3 -322.4,34.7 -108.7,12.5 -218.6,25.8 -329.8,40 -111.3,14.1 -223.8,29.2 -337.7,45.1 -113.9,15.8 -229.2,32.5 -345.8,50 -233.4,35 -472.5,73.2 -717.7,114.3 -245.2,41.2 -496.6,85.4 -754.6,132.4 -258,47 -522.6,96.8 -794.3,149.2 -271.7,52.4 -550.5,107.3 -837,164.7 -286.3,57.4 -580.3,117.1 -882.3,179.1 -604,123.9 -1240.1,256.7 -1912.1,396.6 -672.1,139.8 -1380,286.8 -2127.6,439.4 -373.9,76.3 -757.6,154 -1151.7,232.9 -394.1,78.8 -798.6,158.9 -1213.9,239.9 -415.4,81 -841.62,163 -1279.15,245.8 -437.54,82.8 -886.41,166.3 -1347.07,250.5 -460.67,84.1 -933.13,168.8 -1417.86,254 -484.72,85 -981.72,170.5 -1491.48,256.2 -509.73,85.6 -1032.19,171.5 -1567.85,257.3 -535.71,85.8 -1084.57,171.5 -1647.11,257.1 C 1018.79,22571.4 512.461,22645.8 0,22720 V 0 h 5734.88 c 38.95,59.1406 58.21,89.8008 103.32,157.66 76.96,115.699 162.78,243.711 257.03,382.961 94.26,139.262 196.96,289.77 307.74,450.43 110.78,160.709 229.65,331.569 356.17,511.529 126.52,180 260.78,369.06 402.31,566.17 141.52,197.11 290.31,402.27 446.05,614.41 155.74,212.11 318.4,431.21 487.54,656.18 169.18,225 344.88,455.86 526.68,691.56 181.83,235.7 369.8,476.25 563.51,720.51 193.72,244.29 393.21,492.34 598.01,743.04 102.42,125.39 206.17,251.41 311.16,377.97 105.1,126.56 211.5,253.67 319,381.17 107.6,127.54 216.5,255.43 326.5,383.64 110,128.16 221.2,256.64 333.6,385.23 112.4,128.56 225.9,257.31 340.5,386.02 114.6,128.71 230.3,257.46 347.1,386.05 116.8,128.59 234.6,257.03 353.4,385.24 118.8,128.2 238.7,256.13 359.4,383.67 120.8,127.54 242.5,254.65 365.2,381.25 122.6,126.6 246.1,252.69 370.5,378.08 124.5,125.39 249.7,250.12 375.8,374.03 126,123.94 252.9,247.07 380.5,369.3 127.7,122.2 256.1,243.4 385.2,363.6 129.1,120.2 258.9,239.3 389.4,357.2 130.5,117.9 261.6,234.7 393.4,350 131.8,115.4 264.2,229.5 397.1,342 132.9,112.6 266.5,223.7 400.5,333.2 134.1,109.5 268.6,217.4 403.6,323.5 135,106.2 270.5,210.6 406.4,313.2 136,102.5 272.3,203.2 409,301.8 136.7,98.7 273.8,195.4 411.2,289.9 137.4,94.5 275.2,186.9 413.2,277 138,90.1 276.3,178 414.8,263.4 138.5,85.4 277.3,168.4 416.2,248.9 138.9,80.5 278.1,158.4 417.3,233.7 139.3,75.3 278.6,147.9 418.1,217.6 69.7,34.9 139.5,69.1 209.3,102.6 69.7,33.4 139.5,66.2 209.3,98.2 69.8,32 139.5,63.3 209.4,93.8 69.8,30.6 139.6,60.4 209.4,89.3 69.8,29.1 139.6,57.3 209.4,84.8 69.8,27.4 139.5,54.1 209.3,79.9 69.8,25.9 139.5,51 209.2,75.2 69.8,24.2 139.5,47.6 209.1,70.3 69.7,22.5 139.4,44.3 209,65.2 69.6,20.9 139.2,40.9 208.7,60.1 69.6,19.1 139.1,37.5 208.6,54.9 69.4,17.4 138.8,33.9 208.2,49.6 69.3,15.6 138.6,30.3 207.9,44.1 69.2,13.8 138.5,26.7 207.6,38.7 69.1,11.9 138.2,22.9 207.2,33 69,10.1 137.9,19.2 206.8,27.3 68.8,8.2 137.6,15.3 206.3,21.5 68.7,6.2 137.3,11.4 205.8,15.6 68.6,4.2 137,7.3 205.4,9.5 68.3,2.2 136.5,3.4 204.7,3.5 68.1,0.1 136.2,-0.9 204.1,-2.8 68,-2 135.8,-5 203.5,-9.1 67.8,-4.2 135.4,-9.3 202.9,-15.6 67.5,-6.3 134.9,-13.6 202.1,-22 134.5,-16.9 267.3,-32.1 398.4,-45.5 131.1,-13.4 260.6,-25.2 388.4,-35.3 127.9,-10.2 254.2,-18.7 378.9,-25.6 124.8,-7 248,-12.5 369.8,-16.4 121.7,-4 242.1,-6.4 361,-7.5 118.9,-1.1 236.5,-0.7 352.7,0.9 116.3,1.7 231.2,4.7 344.9,8.9 113.7,4.3 226.1,9.8 337.4,16.4 111.3,6.7 221.4,14.6 330.4,23.6 109,9 216.9,19.1 323.7,30.2 106.9,11.1 212.8,23.3 317.6,36.4 104.9,13.2 208.8,27.3 311.8,42.3 103,15 205.2,30.9 306.4,47.6 101.3,16.7 201.8,34.2 301.5,52.6 99.8,18.3 198.7,37.3 297,57 98.3,19.7 195.9,40.1 292.9,61.1 97,21 193.4,42.6 289.2,64.7 95.9,22.2 191.2,44.8 286,68 189.7,46.2 377.4,94.3 563.8,143.6 186.5,49.4 371.6,100 555.9,151.3 184.3,51.3 367.9,103.2 551.2,155.3 183.4,52.1 366.5,104.2 550,155.9 183.5,51.7 367.3,102.9 552,153.1 184.8,50.1 370.4,99.2 557.5,146.6 187.2,47.5 375.7,93.3 566.4,136.9 95.3,21.8 191,43.1 287.5,63.7 96.4,20.6 193.3,40.6 290.9,59.9 97.6,19.3 195.9,37.9 294.9,55.7 99,17.8 198.7,34.9 299.1,51.1 100.5,16.1 201.8,31.5 303.9,46 102.1,14.4 205.1,27.9 309,40.5 103.9,12.5 208.8,24.1 314.6,34.5 105.8,10.5 212.6,20 320.5,28.2 107.9,8.3 216.9,15.5 327,21.4 110.1,6 221.3,10.7 333.8,14.2 112.4,3.4 226.1,5.6 341,6.5 114.9,0.8 231.1,0.3 348.7,-1.6 117.5,-2 236.4,-5.3 356.7,-10.2 120.3,-4.9 242,-11.3 365.3,-19.2 123.2,-7.9 247.9,-17.4 374.1,-28.5 126.3,-11.2 254.1,-23.9 383.5,-38.4 129.5,-14.5 260.5,-30.7 393.3,-48.7 132.8,-18 267.2,-37.8 403.5,-59.4 136.2,-21.6 274.2,-45.1 414,-70.6 139.8,-25.3 281.5,-52.7 425.1,-82.1 143.5,-29.4 289,-60.7 436.4,-94.1 147.5,-33.5 297,-69 448.4,-106.6 151.5,-37.7 305,-77.5 460.7,-119.5 155.6,-42.1 313.4,-86.3 473.3,-132.9 159.9,-46.5 322.1,-95.3 486.4,-146.6 164.4,-51.2 331,-104.7 500,-160.7 169,-56.1 340.3,-114.5 514,-175.4 97,-34.1 196.6,-70.8 295.1,-106.4 v 4424.8 c -15.7,1.9 -28.6,2.8 -44.5,4.8 -122.2,14.8 -252.9,32.6 -391.6,54 -69.3,10.7 -140.7,22.2 -213.9,34.8 -73.3,12.5 -148.5,26 -225.6,40.5 -77,14.5 -155.9,30.1 -236.6,46.8 -80.7,16.7 -163.2,34.5 -247.4,53.4 -84.3,19 -170.2,39.1 -257.8,60.5 -87.6,21.4 -176.8,44.1 -267.7,68.1 -90.8,23.9 -183.2,49.2 -277.1,75.9 -94,26.7 -189.4,54.8 -286.3,84.4 -96.9,29.5 -195.2,60.6 -294.9,93.2 -99.8,32.6 -200.9,66.6 -303.2,102.4 -102.4,35.7 -206.2,73.1 -311.1,112.1 -105,39.1 -211.2,79.8 -318.5,122.3 -107.4,42.5 -215.9,86.8 -325.6,132.9 -109.6,46 -220.4,93.9 -332.1,143.8 -111.8,49.8 -224.7,101.6 -338.4,155.3 -113.8,53.7 -228.6,109.4 -344.2,167.1 -115.7,57.7 -232.2,117.6 -349.6,179.5 -117.3,61.9 -235.5,125.9 -354.5,192.2 -59.5,33.1 -118.6,65.2 -177.4,96.4 -58.7,31.1 -117.1,61.2 -175.2,90.4 -58.1,29.1 -115.8,57.3 -173.2,84.5 -57.4,27.2 -114.5,53.5 -171.3,78.8 -56.8,25.3 -113.3,49.7 -169.5,73.1 -56.2,23.4 -112.2,45.9 -167.8,67.4 -55.7,21.6 -111.1,42.2 -166.3,61.9 -55.1,19.8 -110,38.5 -164.7,56.5 -54.6,17.9 -109.1,34.9 -163.3,51 -54.2,16.2 -108.2,31.4 -162,45.8 -53.8,14.4 -107.4,27.9 -160.9,40.5 -53.4,12.6 -106.6,24.4 -159.7,35.4 -53.1,10.9 -106,21 -158.8,30.3 -52.7,9.2 -105.4,17.7 -157.9,25.3 -52.5,7.6 -104.8,14.4 -157.1,20.4 -52.2,6 -104.4,11.2 -156.4,15.6 -52.1,4.4 -104,8 -155.9,10.8 -51.9,2.8 -103.7,4.8 -155.4,6.1 -51.7,1.3 -103.4,1.8 -155,1.6 z"
             style="fill:url(#radialGradient42);fill-opacity:1;fill-rule:nonzero;stroke:none"
             id="path44" />
        </g>
      </g>
      <g
         id="g46">
        <g
           id="g48"
           clip-path="url(#clipPath52)">
          <path
             d="m 0,26250 v -3530 c 512.461,-74.2 1018.79,-148.6 1510.08,-223.3 562.54,-85.6 1111.4,-171.3 1647.11,-257.1 535.66,-85.8 1058.12,-171.7 1567.85,-257.3 509.76,-85.7 1006.76,-171.2 1491.48,-256.2 484.73,-85.2 957.19,-169.9 1417.86,-254 460.66,-84.2 909.53,-167.7 1347.07,-250.5 437.53,-82.8 863.75,-164.8 1279.15,-245.9 415.3,-81 819.8,-161 1213.9,-239.9 394.1,-78.9 777.8,-156.5 1151.7,-232.8 747.6,-152.6 1455.5,-299.6 2127.6,-439.5 672,-139.9 1308.1,-272.6 1912.1,-396.5 302,-62 596,-121.8 882.3,-179.1 286.5,-57.4 565.3,-112.4 837,-164.8 271.7,-52.4 536.3,-102.2 794.3,-149.2 258,-47 509.4,-91.1 754.6,-132.3 245.2,-41.2 484.3,-79.4 717.7,-114.3 116.6,-17.5 231.9,-34.2 345.8,-50.1 113.9,-15.8 226.4,-30.9 337.7,-45 111.2,-14.2 221.1,-27.6 329.8,-40 108.7,-12.5 216.1,-24.1 322.4,-34.7 106.2,-10.7 211.3,-20.5 315.2,-29.3 103.9,-8.9 206.8,-16.8 308.5,-23.8 101.7,-6.9 202.4,-13 302,-18 99.7,-5 198.4,-9.1 296.1,-12.2 97.7,-3 194.4,-5.1 290.2,-6.1 95.9,-1 190.9,-1 285,0 94.1,1.1 187.4,3.2 279.9,6.4 92.5,3.2 184.2,7.4 275.3,12.8 91,5.4 181.3,11.8 270.9,19.5 89.7,7.5 178.7,16.3 267.1,26.2 88.4,9.9 176.1,20.9 263.4,33.1 87.2,12.3 173.9,25.7 260.2,40.3 86.2,14.6 171.9,30.4 257.3,47.4 85.3,17.1 170.2,35.3 254.7,54.9 84.6,19.5 168.7,40.3 252.6,62.3 83.8,22.1 167.4,45.4 250.7,70.1 83.3,24.6 166.4,50.6 249.3,77.9 82.8,27.3 165.5,55.9 248.1,85.9 82.5,29.9 164.9,61.3 247.3,94 82.4,32.7 164.7,66.8 246.9,102.3 82.3,35.5 164.6,72.4 246.9,110.7 82.3,38.4 164.7,78.2 247.1,119.4 165,82.5 326.9,164.3 486.2,245.4 159.2,81.1 315.7,161.4 469.5,241 307.6,158.9 604.7,314.6 892.3,466 287.6,151.4 565.7,298.6 835.5,440.7 269.8,142.1 531.2,279.2 785.4,410.3 127,65.5 252.3,129.6 375.9,192.1 123.6,62.5 245.5,123.4 365.8,182.7 120.4,59.2 239.2,116.8 356.6,172.5 117.4,55.7 233.4,109.7 348.1,161.7 114.8,52.1 228.2,102.2 340.6,150.4 112.3,48.1 223.5,94.2 333.8,138.2 110.2,44.1 219.4,86 327.8,125.7 108.4,39.7 215.9,77.1 322.6,112.3 106.8,35.1 212.9,67.9 318.4,98.3 105.5,30.4 210.4,58.4 314.9,83.8 104.5,25.5 208.5,48.3 312.2,68.6 51.9,10.1 103.7,19.6 155.4,28.4 51.8,8.8 103.4,16.9 155,24.4 51.6,7.4 103.2,14.1 154.8,20.2 51.5,6 103.1,11.4 154.6,16 51.5,4.7 103.1,8.6 154.6,11.8 51.5,3.2 103,5.7 154.6,7.4 51.6,1.7 103.1,2.7 154.8,3 51.6,0.2 103.3,-0.3 155,-1.6 51.7,-1.3 103.5,-3.3 155.4,-6.2 51.9,-2.8 103.8,-6.4 155.9,-10.8 52,-4.3 104.2,-9.5 156.4,-15.5 52.3,-6 104.6,-12.8 157.1,-20.4 52.5,-7.7 105.2,-16.1 157.9,-25.4 52.8,-9.2 105.7,-19.3 158.8,-30.2 53.1,-11 106.3,-22.8 159.7,-35.4 53.5,-12.7 107.1,-26.1 160.9,-40.5 53.8,-14.4 107.8,-29.7 162,-45.8 54.2,-16.1 108.7,-33.1 163.3,-51.1 54.7,-17.9 109.6,-36.7 164.7,-56.4 55.2,-19.7 110.6,-40.4 166.3,-61.9 55.6,-21.6 111.6,-44.1 167.8,-67.4 56.2,-23.5 112.7,-47.8 169.5,-73.1 56.8,-25.3 113.9,-51.6 171.3,-78.8 57.4,-27.2 115.1,-55.4 173.2,-84.5 58.1,-29.2 116.5,-59.3 175.2,-90.5 58.8,-31.1 117.9,-63.2 177.4,-96.3 119,-66.3 237.2,-130.4 354.5,-192.3 117.4,-61.9 233.9,-121.7 349.6,-179.4 115.6,-57.8 230.4,-113.5 344.2,-167.2 113.7,-53.7 226.6,-105.4 338.4,-155.2 111.7,-49.9 222.5,-97.8 332.1,-143.9 109.7,-46.1 218.2,-90.3 325.6,-132.8 107.3,-42.5 213.5,-83.3 318.5,-122.3 104.9,-39.1 208.6,-76.4 311.1,-112.1 102.3,-35.8 203.4,-69.9 303.2,-102.5 99.7,-32.5 198,-63.6 294.9,-93.2 96.9,-29.5 192.3,-57.6 286.3,-84.3 93.9,-26.7 186.3,-52 277.1,-76 90.9,-24 180.1,-46.6 267.7,-68 87.6,-21.4 173.5,-41.5 257.8,-60.5 84.2,-19 166.7,-36.8 247.4,-53.4 80.7,-16.7 159.6,-32.3 236.6,-46.8 77.1,-14.6 152.3,-28 225.6,-40.6 73.2,-12.5 144.6,-24.1 213.9,-34.7 138.7,-21.4 269.4,-39.2 391.6,-54.1 15.9,-1.9 28.8,-2.9 44.5,-4.7 V 26250 Z"
             style="fill:url(#radialGradient58);fill-opacity:1;fill-rule:nonzero;stroke:none"
             id="path60" />
        </g>
      </g>
    </g>
  </g>
</svg>
